<?xml version="1.0" encoding="utf-8"?>
<!-- Generator: Adobe Illustrator 19.2.1, SVG Export Plug-In . SVG Version: 6.00 Build 0)  -->
<svg version="1.1" id="Layer_1" xmlns="http://www.w3.org/2000/svg" xmlns:xlink="http://www.w3.org/1999/xlink" x="0px" y="0px"
	 viewBox="0 0 23.9853 21.9824" enable-background="new 0 0 23.9853 21.9824" xml:space="preserve">
<path fill="#4f5ef5" d="M22.4346,2.9775L4.6333,1.9914L4.2598,0.4131C4.2583,0.4075,4.2544,0.4034,4.2529,0.3979
	C4.2046,0.1724,4.0137,0,3.7734,0H0.5C0.2236,0,0,0.2236,0,0.5S0.2236,1,0.5,1h2.8716l3.8662,16.339
	c-0.7324,0.4359-1.23,1.2287-1.23,2.1434c0,1.3789,1.1182,2.5,2.4922,2.5s2.4922-1.1211,2.4922-2.5
	c0-0.5651-0.1948-1.0809-0.5112-1.5h7.0381c-0.3164,0.4191-0.5112,0.9349-0.5112,1.5c0,1.3789,1.1182,2.5,2.4922,2.5
	s2.4922-1.1211,2.4922-2.5s-1.1182-2.5-2.4922-2.5h-11c-0.1069,0-0.209,0.0185-0.312,0.0316l-0.7251-3.0644l14.0215-0.9672
	c0.5303-0.0801,1.2217-0.3984,1.5049-1.459c0.1436-0.5391,0.8877-5.8379,0.9727-6.4492
	C24.1084,3.8799,23.5635,3.1172,22.4346,2.9775z M9.9922,19.4824c0,0.8271-0.6689,1.5-1.4922,1.5s-1.4922-0.6729-1.4922-1.5
	s0.6689-1.5,1.4922-1.5S9.9922,18.6553,9.9922,19.4824z M20.9922,19.4824c0,0.8271-0.6689,1.5-1.4922,1.5s-1.4922-0.6729-1.4922-1.5
	s0.6689-1.5,1.4922-1.5S20.9922,18.6553,20.9922,19.4824z"/>
</svg>
