<?xml version="1.0" encoding="utf-8"?>
<!-- Generator: Adobe Illustrator 19.2.1, SVG Export Plug-In . SVG Version: 6.00 Build 0)  -->
<svg version="1.1" id="Layer_1" xmlns="http://www.w3.org/2000/svg" xmlns:xlink="http://www.w3.org/1999/xlink" x="0px" y="0px"
	 viewBox="0 0 23.4027 19.9966" enable-background="new 0 0 23.4027 19.9966" xml:space="preserve">
<g>
	<path fill="#2fca74" d="M7.9445,8.1123c0.2129,1.6348,1.5508,2.4644,3.8203,2.4092c2.3936-0.0737,2.626,0.9033,2.7305,1.3687
		l0.0293,0.1235c0.0039,0.0132,0.2432,1.3838-1.667,1.8955c-1.4473,0.3892-2.3301,0.043-2.6162-1.0264
		c-0.0723-0.2671-0.3428-0.4253-0.6133-0.3535c-0.2666,0.0713-0.4248,0.3457-0.3535,0.6123
		c0.1357,0.5044,0.6846,1.9189,2.5605,1.9189c0.2217,0,0.4683-0.0276,0.7285-0.071l0.2949,1.0999
		c0.0605,0.2236,0.2627,0.3706,0.4834,0.3706c0.043,0,0.0859-0.0054,0.1299-0.0171c0.2666-0.0713,0.4248-0.3457,0.3535-0.6123
		l-0.2964-1.106c1.8687-0.7017,2.1494-2.2703,1.9419-3.0532c-0.123-0.5522-0.5127-2.2202-3.7314-2.1499
		c-2.6201,0.0737-2.752-1.1411-2.8027-1.5381c-0.002-0.0142-0.0996-1.4321,1.7646-1.9321c1.7412-0.4639,2.3457,0.3491,2.5498,1.1147
		c0.0732,0.2671,0.3447,0.4258,0.6133,0.3535c0.2666-0.0713,0.4248-0.3457,0.3535-0.6123c-0.1572-0.5839-0.8442-2.358-3.2998-1.9264
		l-0.293-1.0931c-0.0723-0.2671-0.3428-0.4248-0.6133-0.3535C9.7453,3.6055,9.5871,3.8799,9.6584,4.1465l0.2993,1.1171
		C8.1378,5.9893,7.8742,7.5682,7.9445,8.1123z"/>
	<path fill="#2fca74" d="M23.2931,6.2451c-0.1133-0.1426-0.29-0.2129-0.4775-0.1802l-1.8301,0.3224
		C19.5382,2.6564,15.9191,0,11.6837,0c-3.7139,0-7.0986,2.042-8.834,5.3291C2.7209,5.5732,2.8146,5.876,3.0587,6.0049
		c0.2422,0.1274,0.5459,0.0366,0.6758-0.209C5.2951,2.8379,8.342,1,11.6837,1c3.7427,0,6.9546,2.3021,8.3027,5.5634l-1.8604,0.3278
		c-0.1826,0.0322-0.333,0.1631-0.3896,0.3398s-0.0098,0.3706,0.1201,0.5029l3.0479,3.0977
		c0.0947,0.0967,0.2236,0.1494,0.3564,0.1494c0.0312,0,0.0635-0.0029,0.0947-0.0093c0.1641-0.0312,0.3018-0.1436,0.3662-0.2979
		L23.3634,6.75C23.4347,6.5815,23.4074,6.3877,23.2931,6.2451z"/>
	<path fill="#2fca74" d="M20.3449,13.9917c-0.2412-0.1265-0.5459-0.0361-0.6758,0.209c-1.5605,2.958-4.6074,4.7959-7.9492,4.7959
		c-3.7427,0-6.9551-2.302-8.3032-5.5632l1.8599-0.3279c0.1826-0.0322,0.333-0.1631,0.3896-0.3398s0.0098-0.3706-0.1201-0.5029
		L2.4992,9.165C2.382,9.0454,2.2121,8.9927,2.048,9.0244S1.7462,9.168,1.6818,9.3228l-1.6426,3.9243
		c-0.0713,0.1685-0.0439,0.3623,0.0703,0.5049c0.0957,0.1201,0.2402,0.188,0.3906,0.188c0.0283,0,0.0576-0.0024,0.0869-0.0078
		l1.8301-0.3226c1.4473,3.7307,5.0664,6.3871,9.3027,6.3871c3.7139,0,7.0986-2.042,8.834-5.3291
		C20.6828,14.4233,20.589,14.1206,20.3449,13.9917z"/>
</g>
</svg>
