<?xml version="1.0" encoding="utf-8"?>
<!-- Generator: Adobe Illustrator 19.2.1, SVG Export Plug-In . SVG Version: 6.00 Build 0)  -->
<svg version="1.1" id="Layer_1" xmlns="http://www.w3.org/2000/svg" xmlns:xlink="http://www.w3.org/1999/xlink" x="0px" y="0px"
	 viewBox="0 0 20 23.9976" enable-background="new 0 0 20 23.9976" xml:space="preserve">
<g>
	<path fill="#577b94" d="M19.8535,4.1426l-3.998-3.9961C15.7617,0.0527,15.6348,0,15.502,0H1.5C0.6729,0,0,0.6729,0,1.5v20.9976
		c0,0.8271,0.6729,1.5,1.5,1.5h17c0.8271,0,1.5-0.6729,1.5-1.5V4.4961C20,4.3633,19.9473,4.2363,19.8535,4.1426z M18.5,22.9976h-17
		c-0.2754,0-0.5-0.2241-0.5-0.5V1.5C1,1.2241,1.2246,1,1.5,1h13.5049v3.501c0,0.2764,0.2236,0.5,0.5,0.5H19v17.4966
		C19,22.7734,18.7754,22.9976,18.5,22.9976z"/>
	<path fill="#577b94" d="M17.001,10.999V9.5244c0-0.2764-0.2236-0.5-0.5-0.5H3.4756c-0.2764,0-0.5,0.2236-0.5,0.5v1.4746H17.001z"/>
	<path fill="#577b94" d="M10.998,11.999H2.9756v8.52c0,0.2764,0.2236,0.5,0.5,0.5h7.5225V11.999z"/>
	<path fill="#577b94" d="M11.998,11.999v9.02h4.5029c0.2764,0,0.5-0.2236,0.5-0.5v-8.52H11.998z"/>
	<rect x="9" y="4.999" fill="#577b94" width="2" height="1"/>
	<rect x="9" y="2.999" fill="#577b94" width="4" height="1"/>
	<path fill="#577b94" d="M3.5039,7.0215h3c0.2764,0,0.5-0.2236,0.5-0.5v-3c0-0.2764-0.2236-0.5-0.5-0.5h-3
		c-0.2764,0-0.5,0.2236-0.5,0.5v3C3.0039,6.7979,3.2275,7.0215,3.5039,7.0215z"/>
</g>
</svg>
