<?xml version="1.0" encoding="utf-8"?>
<!-- Generator: Adobe Illustrator 19.2.1, SVG Export Plug-In . SVG Version: 6.00 Build 0)  -->
<svg version="1.1" id="Layer_1" xmlns="http://www.w3.org/2000/svg" xmlns:xlink="http://www.w3.org/1999/xlink" x="0px" y="0px"
	 viewBox="0 0 48 42" enable-background="new 0 0 48 42" xml:space="preserve">
	<path fill="#768093" d="M47,40H44V17.61a6.13,6.13,0,0,0,3.92-5.92,8.65,8.65,0,0,0-.26-1C46.8,7.19,43.91,0,43.29,0H4.65C4,0,1.15,7.19.26,10.67a8.66,8.66,0,0,0-.26,1,6.15,6.15,0,0,0,4,5.93V40H1a1,1,0,0,0,0,2H47A1,1,0,0,0,47,40ZM2.53,10A60,60,0,0,1,5.65,2H42.3a60,60,0,0,1,3.12,8H2.53ZM36,40H12V24H36V40Zm6,0H38V22H10V40H6V18H6c2.65,0,5.08-2.76,6-5.08C12.93,15.22,15.34,18,18,18s5.17-2.56,6-5.06c0.83,2.5,3.23,5.06,6,5.06s5.12-2.65,6-5.06C36.89,15.33,39.3,18,42,18h0V40ZM16.92,30H31a1,1,0,1,0,0-2H16.92A1,1,0,0,0,16.92,30Zm0,6H31a1,1,0,1,0,0-2H16.92A1,1,0,0,0,16.92,36Z"/>
</svg>
