<?xml version="1.0" encoding="utf-8"?>
<!-- Generator: Adobe Illustrator 19.2.1, SVG Export Plug-In . SVG Version: 6.00 Build 0)  -->
<svg version="1.1" id="Layer_1" xmlns="http://www.w3.org/2000/svg" xmlns:xlink="http://www.w3.org/1999/xlink" x="0px" y="0px"
	 viewBox="0 0 24 19.998" enable-background="new 0 0 24 19.998" xml:space="preserve">
<g>
	<path fill="#f44c67" d="M21.5,0h-19C1.1211,0,0,1.1216,0,2.5v14.998c0,1.3784,1.1211,2.5,2.5,2.5h19c1.3789,0,2.5-1.1216,2.5-2.5
		V2.5C24,1.1216,22.8789,0,21.5,0z M5.5078,9.7954C5.5,9.7767,5.4932,9.7567,5.4858,9.7378
		c-0.0425,0.0078-0.0854,0.0123-0.127,0.0123c-0.0649,0-0.0098-0.0116-0.0596-0.0421C5.0776,9.5735,4.8267,8.5837,4.8223,8.2267
		C4.8169,7.7796,5.126,7.9998,5.1895,7.9998c0.0122,0,0.0195,0.0013,0.0195,0.0013s0.0098-0.0024,0.0225-0.0057
		c-0.001-0.042-0.0034-0.0841-0.0034-0.126c0-0.5023-0.2153-1.3087-0.0869-1.7515c0.1982-0.6862,0.4375-1.4423,0.9658-1.4425
		c0.5034-0.5647,1.3833-0.6609,1.9834-0.6609c0.3105,0,0.5464,0.0258,0.6167,0.0258c0.2969,0,1.0449,0.4514,1.561,0.9804
		c0.3633,0.3728,0.3228,0.4053,0.5225,1.0927c0.1318,0.455-0.0859,1.2725-0.0859,1.756c0,0.0427-0.0024,0.0854-0.0034,0.1281
		c0.0083,0.0021,0.0142,0.0037,0.0142,0.0037s0.0073-0.0013,0.0195-0.0013c0.0635,0,0.3716-0.2268,0.3667,0.2203
		c-0.0039,0.357-0.2554,1.3534-0.4771,1.4879c-0.0493,0.0303,0.0063,0.0421-0.0591,0.0421c-0.0386,0-0.0791-0.0042-0.1187-0.0111
		c-0.0068,0.0173-0.0137,0.0354-0.0205,0.0525c-0.4751,1.1718-0.5166,1.4839-1.1436,2.2179c0,1.7572,0.937,1.7551,1.4541,1.889
		c0.2769,0.0718,0.5005,0.1293,0.7017,0.1848c-0.4141,0.5611-0.5098,1.2797-0.4229,1.8092
		c0.0024,0.0145,0.0093,0.0275,0.0122,0.0419c-0.8472,0.0303-1.9219,0.0351-3.103,0.0351c-2.5254,0-4.5469,0.0244-4.834-0.2481
		c-0.2871-0.2725,0.2417-1.0104,0.5166-1.2715c0.2754-0.2612,0.731-0.3331,1.5054-0.5513c0.6118-0.1724,1.5327-0.1541,1.5327-1.8847
		C6.124,11.3445,5.9878,10.9766,5.5078,9.7954z M12.0024,15.7303c0,0-0.2056-1.2509,0.9551-1.4771
		c0.8413-0.1639,0.8555-0.2518,2.0679-0.7861c0.1509-0.218,0.2983-0.5969,0.4131-1.024c-0.0142,0.0054-0.2573,0.3913-0.2573,0.3913
		h-0.0054c-0.0161-0.0033-0.1797-0.0386-0.27-0.0485c-0.0513-0.0057-0.874-0.1025-1.1562-0.1025c0,0-0.0049,0-0.0073,0
		c-0.0356,0.0002-0.6787,0.0053-0.8354,0.0777l0.8936-1.6917c0,0-0.082,0.1321-0.2021,0.1321c-0.0449,0-0.0952-0.0184-0.1484-0.0687
		c-0.0889-0.084-0.1997-0.1069-0.2944-0.1069c-0.1147,0-0.2061,0.0336-0.2061,0.0336c-0.1221-1.3198-0.0225-4.6086,1.4297-5.6046
		c0.5063-0.3472,0.937-0.4696,1.2935-0.4696c0.3779,0,0.6714,0.1379,0.8813,0.2911c0.21-0.1533,0.5034-0.2911,0.8813-0.2911
		c0.356,0.0001,0.7871,0.1224,1.2935,0.4696c1.4717,1.0095,1.4761,4.3175,1.3076,5.6194c0,0-0.0601-0.0218-0.1489-0.0218
		c-0.0806,0-0.1851,0.0179-0.29,0.0863c-0.0728,0.0473-0.1362,0.0646-0.1895,0.0646c-0.146,0-0.2202-0.1288-0.2231-0.1339
		c0.0103,0.0184,0.9165,1.6359,0.9307,1.6717c-0.0679-0.0273-0.3115-0.0339-0.541-0.0339c-0.2158,0-0.4194,0.0059-0.4531,0.0059
		c-0.2554,0-0.9092,0.1012-0.957,0.1066c-0.0908,0.0099-0.1724,0.0146-0.2461,0.0146c-0.0337,0-0.2202-0.3708-0.251-0.3726
		c0.127,0.4933,0.3135,0.895,0.3794,0.9949c1.2109,0.5271,1.2759,0.6287,1.9712,0.7936c1.1641,0.276,0.9614,1.48,0.9614,1.48
		s-0.5059,0.2529-4.4814,0.2529S12.0024,15.7303,12.0024,15.7303z"/>

		<line fill="none" stroke="#f44c67" stroke-width="0" stroke-linecap="round" stroke-linejoin="round" x1="19.1846" y1="11.0695" x2="19.1846" y2="11.0693"/>
</g>
</svg>
