<?xml version="1.0" encoding="utf-8"?>
<!-- Generator: Adobe Illustrator 19.2.1, SVG Export Plug-In . SVG Version: 6.00 Build 0)  -->
<svg version="1.1" id="Layer_1" xmlns="http://www.w3.org/2000/svg" xmlns:xlink="http://www.w3.org/1999/xlink" x="0px" y="0px"
	 viewBox="0 0 24 24" enable-background="new 0 0 24 24" xml:space="preserve">
<g>
	<path fill="#06c7d9" d="M12,0C5.3828,0,0,5.3833,0,12s5.3828,12,12,12s12-5.3833,12-12S18.6172,0,12,0z M19.2954,20.2101
		c-1.1733-0.3199-2.2222-0.6544-3.1099-0.9958c-0.0713-0.0273-0.1514-0.0542-0.2383-0.0835
		c-0.6387-0.2129-1.5049-0.5029-1.5547-2.4072c0.6982-0.8882,0.9043-1.4443,1.2949-2.5005c0.0693-0.188,0.1455-0.3936,0.2432-0.6499
		c0.1367-0.0371,0.2354-0.1177,0.2969-0.2158c0.5352-0.5352,0.8047-2.2051,0.8086-2.5972c0.0039-0.3853-0.1104-0.6592-0.3398-0.814
		c-0.0713-0.0483-0.1445-0.0786-0.2168-0.0962c0.0156-0.1675,0.0391-0.3477,0.0625-0.5332c0.084-0.6782,0.1719-1.3794,0.0244-1.917
		l-0.1143-0.4268c-0.1875-0.7124-0.251-0.9014-0.7617-1.4521c-0.7402-0.7979-1.96-1.6592-2.6367-1.6592l-0.1338-0.0083
		c-0.1729-0.0122-0.4414-0.0312-0.7627-0.0312c-1.3984,0-2.4482,0.3472-3.126,1.0327c-0.9951,0.188-1.3682,1.543-1.6465,2.5518
		c-0.1426,0.521-0.0576,1.209,0.0244,1.874C7.4336,9.4785,7.459,9.6724,7.4746,9.8525c-0.0771,0.0171-0.1572,0.0493-0.2344,0.103
		c-0.2275,0.1562-0.3408,0.4307-0.3369,0.8149c0.0039,0.4014,0.292,2.1488,0.8574,2.6246
		c-0.0723-0.0744-0.1211-0.1792-0.1279-0.2872c0.0068,0.1068,0.0557,0.2064,0.1284,0.2876
		c0.0078,0.0068,0.0146,0.0191,0.0229,0.0254c0.0654,0.0659,0.1475,0.1172,0.2354,0.1465l0.0137,0.0352
		c0.5967,1.5464,0.8369,2.1685,1.5195,3.1167c-0.0361,1.8369-0.7012,2.0688-1.5371,2.3608c-0.126,0.0439-0.251,0.0879-0.373,0.1357
		c-0.8481,0.3348-1.8447,0.6624-2.957,0.977C2.4302,18.177,1,15.2559,1,12C1,5.9346,5.9346,1,12,1s11,4.9346,11,11
		C23,15.2651,21.562,18.1938,19.2954,20.2101z"/>
	<polygon fill="#06c7d9" points="7.7612,13.3955 7.7607,13.3951 7.7646,13.4009 	"/>
</g>
</svg>
